/* XPM */
static char *light[] = {
/* columns rows colors chars-per-pixel */
"32 32 14 1 ",
"  c gray32",
". c #5B5B5B",
"X c #646464",
"o c #6D6D6D",
"O c #767676",
"+ c #888888",
"@ c gray57",
"# c #9A9A9A",
"$ c gray71",
"% c gray",
"& c gray78",
"* c #D0D0D0",
"= c gray85",
"- c #E2E2E2",
/* pixels */
"                                ",
"                                ",
"               &&               ",
"               --               ",
"               --               ",
"               --               ",
"      .#o      --      o#.      ",
"      #-=o     @@     o=-#      ",
"      o=-=o          o=-=o      ",
"       o=-$   XOOX   $-=o       ",
"        o$O O%----%O O$o        ",
"           +--------+           ",
"          O--*+  +*--O          ",
"          %-*.    .*-%          ",
"         X--+      +--X         ",
"  &----@ O--        --O @----&  ",
"  &----@ O--        --O @----&  ",
"         X--+      +--X         ",
"          %-*.    .*-%          ",
"          O--*+  +*--O          ",
"           +--------+           ",
"        o$O O%----%O O$o        ",
"       o=-$   XOOX   $-=o       ",
"      o=-=o          o=-=o      ",
"      #-=o     @@     o=-#      ",
"      .#o      --      o#.      ",
"               --               ",
"               --               ",
"               --               ",
"               &&               ",
"                                ",
"                                "
};
